<?xml version='1.0' encoding='utf-8'?>
<mxfile host="app.diagrams.net" modified="2025-08-18T01:54:12.399118Z" agent="python/3" version="22.0.0" type="device"><diagram id="Problema 1 — Requisitos y funcionalidades" name="Problema 1 — Requisitos y funcionalidades"><mxGraphModel dx="1222" dy="686" grid="1" gridSize="10" guides="1" tooltips="1" connect="1" arrows="1" fold="1" page="1" pageScale="1" pageWidth="2000" pageHeight="1200" math="0" shadow="0"><root><mxCell id="0" /><mxCell id="1" parent="0" /><mxCell id="T1" value="Problema 1 — Red social de Blissard&#10;(Requisitos y funcionalidades)" vertex="1" parent="1" style="rounded=0;whiteSpace=wrap;html=1;fontSize=22;fontStyle=1;align=center;strokeWidth=2;"><mxGeometry x="420" y="10" width="1160" height="60" as="geometry" /></mxCell><mxCell id="S" value="Sistema: Red social de Blissard" vertex="1" parent="1" style="rounded=1;whiteSpace=wrap;html=1;fontSize=14;"><mxGeometry x="760" y="100" width="420" height="60" as="geometry" /></mxCell><mxCell id="PER" value="Perfil de usuario" vertex="1" parent="1" style="rounded=1;whiteSpace=wrap;html=1;fontSize=14;"><mxGeometry x="780" y="200" width="220" height="60" as="geometry" /></mxCell><mxCell id="USR" value="Nombre de usuario único" vertex="1" parent="1" style="rounded=1;whiteSpace=wrap;html=1;fontSize=14;"><mxGeometry x="450" y="300" width="250" height="50" as="geometry" /></mxCell><mxCell id="FECH" value="Fecha de inscripción" vertex="1" parent="1" style="rounded=1;whiteSpace=wrap;html=1;fontSize=14;"><mxGeometry x="740" y="300" width="220" height="50" as="geometry" /></mxCell><mxCell id="LJ" value="Lista de juegos (con horas)" vertex="1" parent="1" style="rounded=1;whiteSpace=wrap;html=1;fontSize=14;"><mxGeometry x="1020" y="300" width="280" height="50" as="geometry" /></mxCell><mxCell id="LA" value="Lista de amigos" vertex="1" parent="1" style="rounded=1;whiteSpace=wrap;html=1;fontSize=14;"><mxGeometry x="1320" y="300" width="220" height="50" as="geometry" /></mxCell><mxCell id="AG" value="Agregar amigo" vertex="1" parent="1" style="rounded=1;whiteSpace=wrap;html=1;fontSize=14;"><mxGeometry x="1280" y="400" width="200" height="50" as="geometry" /></mxCell><mxCell id="EL" value="Eliminar amigo" vertex="1" parent="1" style="rounded=1;whiteSpace=wrap;html=1;fontSize=14;"><mxGeometry x="1520" y="400" width="200" height="50" as="geometry" /></mxCell><mxCell id="MSJ" value="Enviar mensajes" vertex="1" parent="1" style="rounded=1;whiteSpace=wrap;html=1;fontSize=14;"><mxGeometry x="1180" y="520" width="220" height="50" as="geometry" /></mxCell><mxCell id="TOP3" value="Juegos favoritos (top 3 por horas)" vertex="1" parent="1" style="rounded=1;whiteSpace=wrap;html=1;fontSize=14;"><mxGeometry x="980" y="420" width="320" height="50" as="geometry" /></mxCell><mxCell id="LOG" value="Logros por juego" vertex="1" parent="1" style="rounded=1;whiteSpace=wrap;html=1;fontSize=14;"><mxGeometry x="620" y="420" width="220" height="50" as="geometry" /></mxCell><mxCell id="PERC" value="Porcentaje de completitud (top 3)" vertex="1" parent="1" style="rounded=1;whiteSpace=wrap;html=1;fontSize=14;"><mxGeometry x="880" y="520" width="340" height="60" as="geometry" /></mxCell><mxCell id="eS_PER" value="gestiona" style="edgeStyle=orthogonalEdgeStyle;rounded=1;endArrow=block;endFill=1;html=1;fontSize=12;" edge="1" parent="1" source="S" target="PER"><mxGeometry relative="1" as="geometry" /></mxCell><mxCell id="ePER_USR" value="incluye" style="edgeStyle=orthogonalEdgeStyle;rounded=1;endArrow=block;endFill=1;html=1;fontSize=12;" edge="1" parent="1" source="PER" target="USR"><mxGeometry relative="1" as="geometry" /></mxCell><mxCell id="ePER_FECH" value="incluye" style="edgeStyle=orthogonalEdgeStyle;rounded=1;endArrow=block;endFill=1;html=1;fontSize=12;" edge="1" parent="1" source="PER" target="FECH"><mxGeometry relative="1" as="geometry" /></mxCell><mxCell id="ePER_LJ" value="incluye" style="edgeStyle=orthogonalEdgeStyle;rounded=1;endArrow=block;endFill=1;html=1;fontSize=12;" edge="1" parent="1" source="PER" target="LJ"><mxGeometry relative="1" as="geometry" /></mxCell><mxCell id="ePER_LA" value="incluye" style="edgeStyle=orthogonalEdgeStyle;rounded=1;endArrow=block;endFill=1;html=1;fontSize=12;" edge="1" parent="1" source="PER" target="LA"><mxGeometry relative="1" as="geometry" /></mxCell><mxCell id="eLA_AG" value="permite" style="edgeStyle=orthogonalEdgeStyle;rounded=1;endArrow=block;endFill=1;html=1;fontSize=12;" edge="1" parent="1" source="LA" target="AG"><mxGeometry relative="1" as="geometry" /></mxCell><mxCell id="eLA_EL" value="permite" style="edgeStyle=orthogonalEdgeStyle;rounded=1;endArrow=block;endFill=1;html=1;fontSize=12;" edge="1" parent="1" source="LA" target="EL"><mxGeometry relative="1" as="geometry" /></mxCell><mxCell id="ePER_MSJ" value="permite" style="edgeStyle=orthogonalEdgeStyle;rounded=1;endArrow=block;endFill=1;html=1;fontSize=12;" edge="1" parent="1" source="PER" target="MSJ"><mxGeometry relative="1" as="geometry" /></mxCell><mxCell id="eLJ_TOP3" value="se usa para" style="edgeStyle=orthogonalEdgeStyle;rounded=1;endArrow=block;endFill=1;html=1;fontSize=12;" edge="1" parent="1" source="LJ" target="TOP3"><mxGeometry relative="1" as="geometry" /></mxCell><mxCell id="eLOG_PERC" value="se usa para" style="edgeStyle=orthogonalEdgeStyle;rounded=1;endArrow=block;endFill=1;html=1;fontSize=12;" edge="1" parent="1" source="LOG" target="PERC"><mxGeometry relative="1" as="geometry" /></mxCell><mxCell id="eTOP3_PERC" value="muestra" style="edgeStyle=orthogonalEdgeStyle;rounded=1;endArrow=block;endFill=1;html=1;fontSize=12;" edge="1" parent="1" source="TOP3" target="PERC"><mxGeometry relative="1" as="geometry" /></mxCell><mxCell id="ePER_PERC" value="visualiza" style="edgeStyle=orthogonalEdgeStyle;rounded=1;endArrow=block;endFill=1;html=1;fontSize=12;" edge="1" parent="1" source="PER" target="PERC"><mxGeometry relative="1" as="geometry" /></mxCell></root></mxGraphModel></diagram></mxfile>